# xmcd
#
# Track frame offsets: 
#        150
#        20944
#        37536
#        60003
#        76830
#        96012
#        114149
#        130636
#        148929
#        166306
#        183127
#        206855
#        223438
#        243412
#        264301
#
# Disc length: 3785 seconds
#
# Revision: 0
# Processed by: cddbd v1.5.2PL0 Copyright (c) Steve Scherf et al.
# Submitted via: ExactAudioCopy v0.95a5
#
DISCID=c40ec70f
DTITLE=Kenny G - Going Home 2
DYEAR=1900
DGENRE=Ballad
TTITLE0=Because You Loved Me
TTITLE1=Always Be My Baby
TTITLE2=Killing Me Softly With His Song
TTITLE3=How Deep Is You Love
TTITLE4=Fase Love
TTITLE5=One Of Us
TTITLE6=I'll Make Love To You
TTITLE7=Waiting For Your Love
TTITLE8=Coming Home Now
TTITLE9=Let This Love Begin
TTITLE10=Nobody Knows
TTITLE11=Somebody
TTITLE12=Wind Of Change
TTITLE13=How Many Hours
TTITLE14=Time After Time
EXTD=
EXTT0=
EXTT1=
EXTT2=
EXTT3=
EXTT4=
EXTT5=
EXTT6=
EXTT7=
EXTT8=
EXTT9=
EXTT10=
EXTT11=
EXTT12=
EXTT13=
EXTT14=
PLAYORDER=
